<svg width="49" height="10" viewBox="0 0 49 10" fill="none" xmlns="http://www.w3.org/2000/svg">
<path d="M17.5 0C20.2614 0 22.5 2.23858 22.5 5C22.5 7.76142 20.2614 10 17.5 10C14.7386 10 12.5 7.76142 12.5 5C12.5 2.23858 14.7386 0 17.5 0Z" fill="white"/>
<path d="M30 0C32.7614 0 35 2.23858 35 5C35 7.76142 32.7614 10 30 10C27.2386 10 25 7.76142 25 5C25 2.23858 27.2386 0 30 0Z" fill="white"/>
<path d="M5 0C7.76142 0 10 2.23858 10 5C10 7.76142 7.76142 10 5 10C2.23858 10 0 7.76142 0 5C0 2.23858 2.23858 0 5 0Z" fill="white"/>
<path d="M43.5 0C46.2614 0 48.5 2.23858 48.5 5C48.5 7.76142 46.2614 10 43.5 10C40.7386 10 38.5 7.76142 38.5 5C38.5 2.23858 40.7386 0 43.5 0Z" fill="white"/>
</svg>
