<svg width="10" height="49" viewBox="0 0 10 49" fill="none" xmlns="http://www.w3.org/2000/svg">
<path d="M10 17.5001C10 20.2615 7.76142 22.5001 5 22.5001C2.23858 22.5001 0 20.2615 0 17.5001C0 14.7387 2.23858 12.5001 5 12.5001C7.76142 12.5001 10 14.7387 10 17.5001Z" fill="white"/>
<path d="M10 30C10 32.7614 7.76142 35 5 35C2.23858 35 0 32.7614 0 30C0 27.2386 2.23858 25 5 25C7.76142 25 10 27.2386 10 30Z" fill="white"/>
<path d="M10 5C10 7.76142 7.76142 10 5 10C2.23858 10 0 7.76142 0 5C0 2.23858 2.23858 0 5 0C7.76142 0 10 2.23858 10 5Z" fill="white"/>
<path d="M10 43.4999C10 46.2613 7.76142 48.4999 5 48.4999C2.23858 48.4999 0 46.2613 0 43.4999C0 40.7385 2.23858 38.4999 5 38.4999C7.76142 38.4999 10 40.7385 10 43.4999Z" fill="white"/>
</svg>
